<?xml version="1.0" ?><!DOCTYPE svg  PUBLIC '-//W3C//DTD SVG 1.1//EN'  'http://www.w3.org/Graphics/SVG/1.1/DTD/svg11.dtd'><svg enable-background="new 0 0 48 48" id="Layer_1" version="1.1" viewBox="0 0 48 48" xml:space="preserve" xmlns="http://www.w3.org/2000/svg" xmlns:xlink="http://www.w3.org/1999/xlink"><g><path d="M1.7,33.9l-1.3-1.5c0.6-0.5,1.4-0.9,2.1-1.2c0.4-0.2,0.7-0.3,1-0.5c1.1-0.6,2.2-1.1,3.5-1.2   c2-0.3,4.8-0.7,7-0.2c1.1,0.3,2.2,0.8,3.2,1.3c0.5,0.2,1,0.5,1.5,0.7c1,0.4,2.1,0.4,3.3,0.3c0.3,0,0.7,0,1,0c1.6,0,3.1-0.6,4.6-1.2   c1.7-0.7,3.4-1.4,5.4-1.4c1.9,0,3.3,0.1,5.1,0.8c1.6,0.6,3.2,1.1,4.7,1.5c1.3,0.3,2,0.1,3.4-0.4l0.4-0.1l0.6,1.9l-0.4,0.1   c-1.5,0.5-2.6,0.8-4.5,0.4c-1.6-0.4-3.3-0.9-4.9-1.5C36,31.1,34.9,31,33.1,31c-1.6,0-3.1,0.6-4.6,1.2c-1.7,0.7-3.4,1.4-5.4,1.4   c-0.3,0-0.6,0-0.9,0c-1.4,0-2.7,0.1-4.1-0.5c-0.5-0.2-1.1-0.5-1.7-0.7c-0.9-0.4-1.9-0.9-2.8-1.1c-1.8-0.5-4.4-0.1-6.3,0.2   c-1,0.1-1.9,0.5-2.8,1c-0.4,0.2-0.8,0.4-1.2,0.5C2.6,33.3,2,33.5,1.7,33.9z" fill="#010101"/><path d="M1.7,40.3l-1.3-1.5c0.6-0.5,1.4-0.9,2.1-1.2c0.4-0.2,0.7-0.3,1-0.5C4.6,36.6,5.7,36,7,35.9   c2-0.3,4.8-0.7,7-0.2c1.1,0.3,2.2,0.8,3.2,1.2c0.5,0.2,1,0.5,1.5,0.7c1,0.4,2.1,0.4,3.3,0.3c0.3,0,0.7,0,1,0c1.6,0,3.1-0.6,4.6-1.2   c1.7-0.7,3.4-1.4,5.4-1.4c1.9,0,3.3,0.1,5.1,0.8c1.6,0.6,3.2,1.1,4.7,1.5c1.3,0.3,2,0.1,3.4-0.4l0.4-0.1l0.6,1.9l-0.4,0.1   c-1.5,0.5-2.6,0.8-4.5,0.4c-1.6-0.4-3.3-0.9-4.9-1.5c-1.5-0.5-2.7-0.6-4.4-0.6c-1.6,0-3.1,0.6-4.6,1.2c-1.7,0.7-3.4,1.4-5.4,1.4   c-0.3,0-0.6,0-0.9,0c-1.3,0-2.7,0.1-4.1-0.5c-0.5-0.2-1.1-0.5-1.7-0.7c-0.9-0.4-1.9-0.9-2.8-1.1c-1.8-0.5-4.4-0.1-6.3,0.2   c-1,0.1-1.9,0.5-2.8,1c-0.4,0.2-0.8,0.4-1.2,0.5C2.6,39.7,2,39.9,1.7,40.3z" fill="#010101"/><path d="M20.6,29.7h-2V13.3c0-1.1-0.3-1.9-0.9-2.6c-1.3-1.2-3.4-1.2-3.4-1.2l0-2c0.1,0,3,0,4.9,1.8   c1,1,1.5,2.4,1.5,4V29.7z" fill="#010101"/><path d="M35,27.4h-2V13.3c0-1.1-0.3-1.9-0.9-2.6c-1.3-1.2-3.4-1.2-3.4-1.2l0-2c0.1,0,3,0,4.9,1.8c1,1,1.5,2.4,1.5,4   V27.4z" fill="#010101"/><rect fill="#010101" height="2" width="14" x="19.8" y="14.4"/><rect fill="#010101" height="2" width="14" x="19.8" y="19.4"/><rect fill="#010101" height="2" width="14" x="19.8" y="24.4"/></g></svg>