<svg xmlns="http://www.w3.org/2000/svg" viewBox="0 0 24.8 26.1"><path d="M5.8 13.5h.4c1.6 0 2.9-1.2 3.2-2.8.2-1.7-1-3.4-2.7-3.6-1.8-.2-3.4 1-3.6 2.7-.2 1.9 1 3.5 2.7 3.7zm-1.7-3.4C4.2 9 5.2 8.2 6.3 8.2h.3c1.2.2 2 1.3 1.9 2.5-.2 1.2-1.3 2-2.5 1.9-1.2-.2-2.1-1.4-1.9-2.5z"/><path d="M24.7 6c.1-.3.2-.6.1-1 0-.1 0-.2-.1-.3v-.1c0-.1 0-.1-.1-.1 0-.1-.1-.1-.2-.3-.2-.3-.5-.5-.7-.6L18.1.3c-.4-.3-.9-.3-1.4-.2-.5.1-.9.4-1.1.8-.5.9-.2 2 .6 2.5l4.5 2.7-1.7 5.8-3.6.5c-.4.1-.8.2-1.2.4l-1.1.7c.1-.8.2-1.5.4-2.3.4.2.8.4 1.3.4h.5c1.8 0 3.3-1.3 3.6-3.1.1-1-.1-1.9-.7-2.7-.6-.8-1.4-1.3-2.4-1.4-1.3-.2-2.5.3-3.2 1.3L8.7 3.5c-.8-.5-1.8-.2-2.3.6-.2.3-.3.8-.2 1.2s.4.8.8 1l3.9 2.3-1.5 4.9-3.1.5c-.4.1-.7.2-1 .4L.8 17.3c-.7.4-1 1.3-.7 2 0 .1.1.2.1.3L3 24.4c.2.4.6.7 1 .8.4.1.9 0 1.3-.2.8-.5 1.1-1.5.6-2.3l-2-3.5 2.2-1.4.1 7.6c0 .3.2.5.5.5s.5-.2.5-.5L7 16l-4.5 2.9L5 23.2c.2.3.1.7-.2.9-.3.2-.7.1-.9-.2l-2.8-4.8s0-.1-.1-.2c-.1-.3 0-.6.3-.8l4.5-2.9c.3-.1.5-.2.7-.2l3.7-.5 1.7-5.6c.1.7.5 1.3.9 1.8-.3 1.2-.5 2.4-.6 3.7l-3.1 2c-.8.5-1.1 1.4-.7 2.2 0 .1.1.3.2.4l3.3 5.5c.3.5.7.8 1.2.9v.1c0 .3.3.5.5.4.3 0 .5-.3.4-.5v-.1c.1 0 .2-.1.3-.1.9-.5 1.2-1.7.7-2.5l-1.5-2.5-.2-2 2-1.3.2 8.9c0 .3.2.5.5.5s.5-.2.5-.5l-.2-10.7-3.1 2-.5.3-.5.3-1 .6 1.3 2.2.6 1 .6 1 .4.7c.2.4.1.8-.2 1.1 0 0 0 .1-.1.1-.1.1-.3.1-.4.1-.2 0-.4 0-.5-.1-.1-.1-.2-.2-.2-.3l-3.3-5.5c0-.1-.1-.1-.1-.2-.2-.4 0-.8.3-1l2.5-1.6.5-.3.5-.3 1.7-1.1c.2-.1.5-.2.8-.3l4.2-.6L22 5.7l-5.2-3.1c-.4-.2-.5-.8-.3-1.2.1-.2.3-.3.5-.4.2-.1.4 0 .6.1l5.7 3.4c.1.1.2.2.4.3 0 0 0 .1.1.1v.2c0 .2 0 .3-.1.5l-.6 2.2c-.8 2.8-1.1 5.7-.8 8.6l.9 8.9c0 .3.3.5.5.4.3 0 .5-.3.4-.5l-.9-9c-.3-2.8 0-5.6.8-8.2l.7-2zM11.8 7.6V8L7.5 5.5c-.3-.2-.4-.6-.2-.9.2-.3.6-.4.9-.2l3.9 2.3c-.1.3-.3.6-.3.9zm1.3 1.8c-.3-.5-.4-1-.3-1.6 0-.2.1-.4.2-.6 0-.2.1-.3.2-.5.1-.1.2-.3.3-.4.5-.5 1.1-.8 1.9-.8h.4c.7.1 1.3.5 1.7 1 .4.6.6 1.2.5 1.9-.2 1.4-1.5 2.4-2.9 2.2-.4-.1-.8-.2-1.1-.5-.2-.1-.3-.2-.4-.4-.3 0-.4-.1-.5-.3z"/></svg>